<?xml version="1.0" standalone="no"?>
<!DOCTYPE svg PUBLIC "-//W3C//DTD SVG 20010904//EN"
 "http://www.w3.org/TR/2001/REC-SVG-20010904/DTD/svg10.dtd">
<svg version="1.0" xmlns="http://www.w3.org/2000/svg"
 width="1024.000000pt" height="1024.000000pt" viewBox="0 0 1024.000000 1024.000000"
 preserveAspectRatio="xMidYMid meet">
<metadata>
Created by potrace 1.11, written by Peter Selinger 2001-2013
</metadata>
<g transform="translate(0.000000,1024.000000) scale(0.100000,-0.100000)"
fill="#000000" stroke="none">
<path d="M2813 9311 c-98 -36 -173 -103 -220 -196 -12 -22 -66 -202 -121 -400
-56 -198 -207 -738 -337 -1200 -130 -462 -305 -1087 -390 -1390 -232 -826
-266 -950 -269 -952 -1 -1 -45 -6 -98 -12 -53 -5 -109 -16 -125 -24 -37 -20
-79 -65 -92 -100 -7 -19 -11 -238 -11 -660 0 -709 -4 -668 74 -732 l38 -30
243 -5 243 -5 319 -265 c175 -145 883 -735 1573 -1310 691 -575 1272 -1056
1291 -1068 121 -74 296 -63 414 26 28 21 737 610 1576 1309 839 699 1535 1275
1547 1282 11 6 37 11 57 11 63 0 177 30 253 67 167 82 268 248 302 500 19 136
8 453 -19 559 -41 166 -106 271 -215 349 -36 25 -67 54 -70 63 -11 38 -306
1088 -356 1267 -15 55 -71 255 -125 445 -131 465 -308 1098 -349 1245 -190
681 -282 998 -303 1039 -34 66 -106 136 -178 172 l-60 29 -2270 2 c-2194 2
-2272 2 -2322 -16z m4507 -365 c0 -2 70 -253 155 -557 86 -305 210 -747 277
-984 66 -236 135 -482 153 -545 18 -63 32 -116 31 -117 -1 -1 -54 15 -119 35
l-117 37 -20 65 c-16 57 -139 494 -220 785 -39 141 -95 339 -203 725 l-95 335
-2040 3 -2040 2 -11 -32 c-6 -18 -39 -136 -75 -263 -35 -126 -130 -464 -210
-751 -80 -286 -146 -525 -146 -532 0 -13 188 63 390 158 80 38 174 78 209 89
216 70 634 123 1071 136 389 11 590 13 590 6 0 -4 -5 -12 -12 -19 -9 -9 -3
-12 28 -13 21 -1 -24 -6 -100 -10 -77 -4 -245 -20 -375 -34 -236 -27 -271 -36
-271 -71 0 -7 38 -109 84 -227 98 -248 104 -267 83 -267 -10 0 -43 71 -102
218 -48 119 -93 231 -100 249 -19 42 -49 48 -240 47 -221 -1 -540 -43 -632
-84 -54 -24 -213 -160 -213 -182 0 -10 -3 -18 -6 -18 -64 0 -541 -97 -486 -99
23 -1 23 -1 20 -126 -2 -104 -1 -125 12 -129 8 -2 -16 -2 -55 0 -84 6 -261 33
-293 45 -22 8 -22 10 -7 46 20 47 74 113 117 142 28 20 37 35 57 110 36 127
113 404 191 681 38 135 98 349 133 475 36 127 93 330 127 453 l63 222 2198 0
c1210 0 2199 -2 2199 -4z m-2445 -730 c38 -25 55 -74 55 -156 0 -82 -17 -131
-54 -156 -36 -23 -149 -30 -201 -12 -54 18 -85 77 -85 164 0 101 26 156 84
174 48 15 170 6 201 -14z m449 14 c21 -4 46 -15 54 -24 20 -19 28 -108 13
-145 -16 -38 -49 -51 -126 -51 l-65 0 0 -60 0 -60 -50 0 -50 0 0 169 c0 168 0
170 23 174 41 8 162 7 201 -3z m669 3 c37 -6 38 -7 35 -42 l-3 -36 -58 3 c-41
3 -65 -1 -82 -12 -23 -15 -25 -23 -25 -86 0 -63 2 -71 25 -86 20 -13 38 -15
85 -10 58 7 60 6 66 -19 10 -42 -1 -53 -61 -60 -68 -9 -140 0 -172 20 -44 29
-56 71 -54 186 2 120 86 169 244 142z m682 -2 c25 -5 31 -12 33 -39 l3 -32
-85 0 c-75 0 -86 -2 -86 -18 0 -12 19 -24 67 -41 90 -33 113 -56 113 -119 0
-38 -5 -53 -23 -71 -29 -26 -99 -36 -191 -26 l-66 7 0 36 0 37 78 -3 c85 -3
117 8 92 31 -8 8 -43 24 -77 36 -73 27 -93 46 -100 99 -7 49 9 80 50 97 33 15
138 18 192 6z m-2858 -166 c29 -88 53 -163 53 -167 0 -5 -24 -8 -54 -8 l-54 0
-9 38 c-9 37 -9 37 -65 40 l-57 3 -11 -41 -11 -40 -55 0 c-41 0 -55 3 -52 13
3 6 27 77 53 157 26 80 52 151 58 158 7 9 32 12 80 10 l70 -3 54 -160z m183
42 c0 -136 4 -147 57 -147 45 0 53 24 53 161 l0 109 50 0 50 0 0 -130 c0 -150
-10 -183 -65 -206 -48 -20 -142 -18 -185 4 -57 28 -70 67 -70 210 l0 122 55 0
55 0 0 -123z m570 88 l0 -35 -55 0 -55 0 0 -136 0 -135 -52 3 -53 3 -3 133 -3
132 -49 0 -50 0 0 35 0 35 160 0 160 0 0 -35z m1140 0 l0 -35 -80 0 c-44 0
-81 -3 -81 -7 -9 -54 -11 -53 67 -53 l74 0 0 -35 0 -35 -75 0 c-67 0 -75 -2
-75 -19 0 -46 8 -51 91 -51 l79 0 0 -35 0 -35 -115 0 c-157 0 -155 -2 -155
170 0 172 -2 170 155 170 l115 0 0 -35z m598 23 c9 -12 42 -109 92 -270 l18
-58 -54 0 -53 0 -12 40 -12 41 -56 -3 c-56 -3 -56 -3 -65 -40 -10 -38 -10 -38
-63 -38 -29 0 -53 3 -53 8 0 10 98 311 105 322 9 15 141 12 153 -2z m-350
-384 c5 -32 -37 -72 -81 -80 -37 -6 -39 -5 -35 17 2 16 11 25 26 27 24 4 31
22 7 22 -8 0 -15 9 -15 21 0 18 5 20 48 17 39 -2 47 -7 50 -24z m-975 -291
c-13 -2 -33 -2 -45 0 -13 2 -3 4 22 4 25 0 35 -2 23 -4z m1089 -462 c11 -12
10 -12 -2 -5 -8 4 -76 11 -150 15 l-135 7 137 -2 c103 -1 140 -4 150 -15z
m-299 2 c-7 -2 -21 -2 -30 0 -10 3 -4 5 12 5 17 0 24 -2 18 -5z m-353 -36 c61
-20 39 -20 -72 -1 -92 16 -166 16 -378 -2 -41 -4 -72 -4 -69 0 25 27 439 29
519 3z m335 3 c-46 -21 -65 -24 -65 -10 0 5 12 12 28 16 15 3 32 7 37 9 33 11
33 0 0 -15z m-805 -55 c-61 -27 -104 -32 -98 -12 6 17 65 36 113 36 l40 0 -55
-24z m-347 -72 c-7 -2 -19 -2 -25 0 -7 3 -2 5 12 5 14 0 19 -2 13 -5z m-73
-13 l-35 -6 30 -8 c17 -4 35 -9 40 -10 6 -2 -31 -8 -82 -15 -51 -6 -99 -14
-106 -17 -11 -4 -13 1 -10 20 4 21 12 26 52 31 25 4 53 8 61 9 8 2 31 4 50 4
l35 -1 -35 -7z m93 -17 c-7 -2 -21 -2 -30 0 -10 3 -4 5 12 5 17 0 24 -2 18 -5z
m-148 -83 c34 -7 35 -8 11 -9 -16 -1 -26 -4 -23 -7 4 -4 -2 -19 -13 -34 -11
-16 -20 -32 -20 -36 0 -4 -6 -15 -14 -23 -7 -9 -28 -43 -45 -76 -18 -33 -37
-64 -42 -69 -15 -16 -11 -24 14 -29 18 -3 17 -5 -7 -6 l-29 -1 6 83 c3 45 13
115 22 154 l17 73 41 -6 c23 -4 60 -10 82 -14z m-1072 -33 c28 -4 47 -3 47 3
0 6 -12 11 -27 11 -26 2 -26 2 -4 6 13 3 28 0 33 -5 12 -12 -16 -82 -34 -82
-9 0 -9 3 2 10 22 14 2 27 -47 32 -28 2 -44 -1 -47 -9 -3 -7 0 -13 6 -13 6 0
9 -3 5 -6 -3 -3 -10 -3 -16 0 -7 5 -5 19 6 41 9 20 19 31 22 27 3 -5 27 -12
54 -15z m4146 -30 c14 -18 4 -27 -31 -27 -35 0 -71 17 -63 31 9 14 81 11 94
-4z m-4156 -34 c-7 -2 -19 -2 -25 0 -7 3 -2 5 12 5 14 0 19 -2 13 -5z m-73
-83 c0 -11 -4 -20 -8 -20 -4 0 -8 9 -9 20 -1 11 2 20 8 20 5 0 9 -9 9 -20z
m3227 -23 c16 -15 16 -19 3 -27 -22 -14 -66 -12 -105 4 -34 15 -45 31 -25 38
32 10 111 1 127 -15z m-4206 -162 c19 -17 45 -37 58 -45 l23 -15 -45 -160
c-101 -356 -241 -857 -270 -964 l-31 -113 -35 6 c-20 3 -66 9 -103 12 -48 5
-68 11 -68 21 0 12 163 597 327 1176 l56 198 27 -43 c15 -24 43 -57 61 -73z
m5650 23 c25 -46 -18 -196 -64 -222 -40 -24 -60 53 -36 139 25 91 74 132 100
83z m-5131 -24 c117 -99 137 -447 31 -553 -29 -29 -85 -28 -116 3 -89 89 -122
338 -65 488 34 90 89 113 150 62z m4897 -28 c17 -51 6 -112 -26 -147 -59 -64
-121 -27 -121 73 0 64 18 90 70 104 59 16 63 14 77 -30z m-1014 -155 c40 -68
11 -171 -56 -201 -49 -22 -74 -15 -104 30 -28 40 -30 101 -5 150 15 31 24 36
72 46 66 13 71 11 93 -25z m-327 -48 c54 -80 37 -205 -36 -267 -39 -33 -80
-33 -117 -2 l-27 24 18 78 c26 110 43 150 78 180 38 31 56 28 84 -13z m-1048
-140 c151 -71 252 -243 253 -428 1 -280 -209 -459 -438 -373 -43 16 -75 38
-124 87 -76 77 -109 140 -135 259 -15 71 -16 93 -6 160 22 141 88 243 190 296
70 37 182 36 260 -1z m2786 -101 c16 -59 53 -190 81 -292 119 -419 135 -478
135 -487 0 -6 -30 -13 -67 -17 -38 -4 -84 -9 -104 -12 l-35 -6 -17 59 c-9 32
-59 211 -111 398 l-96 339 20 21 c26 28 25 36 -2 26 -13 -5 -56 -18 -95 -29
l-73 -20 0 27 c0 27 4 29 61 40 46 9 64 10 69 1 9 -15 61 -3 78 19 12 15 76
38 112 40 11 1 23 -29 44 -107z m-3327 -114 c-3 -8 -6 -5 -6 6 -1 11 2 17 5
13 3 -3 4 -12 1 -19z m2673 -3 c0 -5 -59 -126 -65 -133 -1 -2 -454 -102 -462
-102 -18 0 21 122 45 143 10 10 101 32 222 55 200 39 260 47 260 37z m-2683
-157 c-2 -29 -3 -8 -3 47 0 55 1 79 3 53 2 -26 2 -71 0 -100z m1233 6 c14 -4
81 -10 150 -14 l125 -7 -115 -2 c-63 -1 -107 -6 -97 -10 10 -4 18 -11 18 -16
-1 -12 116 -18 186 -10 38 5 54 11 58 24 4 14 26 21 95 33 50 8 90 13 90 12 0
-2 -5 -14 -11 -28 -10 -22 -28 -29 -148 -58 -140 -34 -267 -43 -353 -25 -38 8
-42 13 -54 81 -7 42 -12 40 56 20z m-1223 -116 c-3 -8 -6 -5 -6 6 -1 11 2 17
5 13 3 -3 4 -12 1 -19z m2545 -289 c152 -57 168 -58 168 -8 l0 29 69 0 69 0 7
-31 c10 -45 -3 -130 -25 -167 -11 -18 -36 -40 -55 -49 -44 -21 -101 -11 -221
37 -98 39 -128 37 -132 -7 l-3 -33 -68 0 c-63 0 -69 2 -75 23 -18 69 3 158 49
204 29 29 40 33 83 33 32 0 81 -11 134 -31z m-4378 -335 c117 -30 185 -85 231
-186 43 -95 57 -193 57 -398 0 -463 -111 -600 -487 -600 -147 0 -221 13 -296
50 -144 73 -200 225 -200 545 0 229 20 345 75 439 54 93 151 148 290 166 91
11 254 3 330 -16z m5516 16 c168 -19 257 -68 315 -173 57 -103 70 -183 70
-432 0 -179 -4 -232 -18 -285 -67 -246 -190 -319 -515 -307 -200 7 -285 40
-358 142 -70 99 -101 285 -90 541 15 348 109 480 367 513 91 12 133 12 229 1z
m-6536 -15 c139 -24 198 -64 244 -163 23 -50 26 -70 27 -162 0 -126 -18 -182
-75 -234 -34 -31 -91 -56 -128 -56 -7 0 -10 -4 -7 -10 3 -5 14 -10 24 -10 30
0 99 -57 121 -99 11 -22 38 -122 60 -223 23 -101 43 -189 45 -195 3 -10 -36
-13 -173 -13 l-178 0 -33 173 c-18 94 -37 187 -43 204 -14 48 -42 63 -115 63
l-63 0 -2 -217 -3 -218 -168 -3 -167 -2 2 582 3 583 75 6 c167 12 466 9 554
-6z m2063 -7 c128 -36 173 -101 181 -258 6 -128 -12 -193 -68 -244 -26 -23
-54 -38 -81 -42 l-42 -7 58 -18 c70 -21 116 -63 146 -133 18 -42 22 -70 23
-161 1 -101 -2 -115 -28 -168 -33 -68 -74 -99 -161 -122 -46 -12 -119 -15
-336 -15 -152 0 -297 3 -323 6 l-46 7 2 581 3 581 95 6 c165 11 519 3 577 -13z
m1760 11 c89 -12 179 -48 216 -87 14 -15 36 -49 49 -77 20 -43 23 -66 23 -170
0 -109 -2 -125 -25 -169 -30 -58 -60 -82 -131 -106 l-53 -18 40 -17 c45 -19
90 -58 111 -99 11 -21 103 -398 103 -422 0 -3 -79 -3 -176 -2 l-177 3 -36 185
c-21 102 -43 195 -49 207 -18 33 -44 43 -111 43 l-61 0 0 -220 0 -220 -170 0
-170 0 0 580 0 580 23 5 c66 15 493 18 594 4z m-704 -15 c26 -6 28 -10 23 -43
-3 -20 -5 -69 -6 -108 l0 -73 -199 0 c-185 0 -200 -1 -225 -21 -25 -19 -26
-25 -26 -110 l0 -89 195 0 195 0 0 -105 0 -105 -195 0 -195 0 0 -114 c0 -161
-9 -156 251 -156 l199 0 0 -72 c1 -40 3 -89 6 -110 l5 -36 -68 -8 c-37 -4
-180 -7 -318 -8 -240 -1 -252 0 -291 21 -47 25 -91 73 -111 120 -10 25 -13
121 -13 445 0 462 0 457 73 526 63 61 80 63 392 58 154 -3 293 -9 308 -12z
m1937 -114 l0 -120 -145 0 -145 0 0 -460 0 -460 -175 0 -175 0 0 460 0 459
-142 3 -143 3 -3 118 -3 117 466 0 465 0 0 -120z m614 88 c30 -30 37 -52 84
-243 28 -115 87 -357 132 -537 44 -181 80 -332 80 -338 0 -16 -340 -13 -344 3
-3 6 -14 69 -27 140 l-22 127 -138 0 c-136 0 -139 0 -143 -22 -3 -13 -15 -76
-27 -140 l-21 -118 -174 0 c-96 0 -174 2 -174 5 0 3 62 251 137 553 122 489
140 550 164 575 l27 27 207 0 207 0 32 -32z m-5114 -1314 c47 -13 100 -23 118
-23 18 -1 42 -6 53 -12 11 -6 560 -460 1220 -1009 l1200 -999 957 797 c526
439 1077 898 1224 1020 l268 222 161 0 c88 0 159 -4 157 -9 -1 -5 -262 -224
-578 -487 -316 -263 -938 -781 -1382 -1151 l-807 -672 -393 327 c-702 584
-2373 1974 -2382 1983 -12 10 66 50 84 42 8 -4 53 -17 100 -29z m2090 -282
c45 -45 51 -150 14 -224 -17 -32 -64 -48 -146 -48 -92 0 -88 -8 -88 156 l0
144 96 0 c91 0 97 -1 124 -28z m325 -7 c0 -29 -1 -30 -60 -35 -47 -4 -61 -9
-63 -22 -3 -15 5 -18 53 -18 l56 0 -3 -32 c-3 -31 -4 -31 -53 -32 -44 -1 -50
-4 -53 -23 -3 -22 0 -23 56 -23 62 0 72 -7 72 -50 0 -15 -12 -19 -73 -24 -73
-7 -124 3 -139 27 -4 7 -8 62 -8 124 0 141 4 145 130 141 l85 -3 0 -30z m282
27 c6 -4 9 -19 6 -35 -5 -26 -8 -27 -64 -27 -32 0 -60 -4 -63 -9 -3 -5 19 -19
48 -31 70 -28 89 -49 89 -101 0 -67 -26 -84 -128 -84 -93 1 -111 9 -101 49 6
25 10 26 71 26 36 0 65 4 65 9 0 5 -20 17 -45 27 -68 25 -95 55 -95 104 0 65
23 80 123 80 45 0 87 -4 94 -8z m308 -15 c45 -38 55 -157 19 -229 -17 -32 -64
-48 -144 -48 -105 0 -100 -7 -100 149 0 76 3 141 7 144 3 4 48 7 99 7 82 0 96
-3 119 -23z m330 13 c3 -5 3 -20 -1 -34 -5 -23 -12 -25 -62 -28 -45 -2 -58 -7
-60 -20 -3 -15 5 -18 53 -18 l56 0 -3 -31 c-3 -31 -5 -32 -53 -33 -44 -1 -50
-4 -53 -23 -3 -22 0 -23 56 -23 53 0 60 -2 66 -22 11 -43 7 -46 -67 -52 -73
-7 -124 3 -139 27 -4 7 -8 61 -8 121 0 143 2 146 121 146 48 0 90 -4 94 -10z
m-1074 -379 c16 -13 23 -29 23 -55 0 -30 -8 -45 -49 -86 l-49 -50 52 0 52 0 0
-40 0 -41 -112 3 -113 3 3 34 c2 27 16 49 64 98 33 35 58 67 54 70 -3 4 -31 6
-61 5 l-55 -1 0 40 0 39 84 0 c67 0 88 -4 107 -19z m306 4 c43 -30 58 -161 25
-225 -20 -41 -53 -60 -105 -60 -99 0 -132 46 -125 177 3 67 6 78 31 99 23 20
39 24 90 24 40 0 70 -6 84 -15z m263 -130 l0 -145 -51 0 -50 0 3 106 3 106
-32 -5 c-18 -3 -33 -3 -33 1 0 4 -3 17 -6 29 -5 18 0 25 27 37 19 8 58 15 87
15 l52 1 0 -145z m274 123 c20 -28 20 -67 1 -95 -12 -18 -13 -23 -1 -32 21
-18 28 -59 16 -96 -13 -39 -48 -55 -119 -55 -77 0 -91 7 -91 47 l0 35 48 -6
c53 -7 76 3 70 30 -2 14 -13 20 -46 22 -40 3 -42 5 -39 30 3 24 8 27 46 30 33
3 42 7 39 20 -2 13 -16 18 -56 20 -45 3 -53 6 -58 27 -10 39 2 45 91 45 75 0
85 -2 99 -22z"/>
<path d="M4710 8130 c-15 -36 -9 -132 9 -154 8 -9 29 -16 47 -16 41 0 54 24
54 100 0 79 -12 100 -59 100 -33 0 -40 -4 -51 -30z"/>
<path d="M5207 8163 c-4 -3 -7 -24 -7 -45 l0 -39 43 3 c40 3 42 4 45 39 3 31
-1 37 -20 43 -30 8 -53 8 -61 -1z"/>
<path d="M3671 8116 c-6 -24 -13 -51 -17 -60 -5 -13 1 -16 30 -16 20 0 36 3
36 6 0 11 -31 114 -35 114 -1 0 -8 -20 -14 -44z"/>
<path d="M6227 8150 c-13 -33 -28 -102 -24 -107 3 -2 18 -3 34 -1 l30 3 -17
60 c-10 35 -20 54 -23 45z"/>
<path d="M2769 6433 c-15 -15 -34 -40 -43 -54 -16 -26 -16 -26 33 -67 47 -40
69 -52 57 -33 -4 5 -1 11 4 13 14 4 2 132 -14 153 -10 14 -15 12 -37 -12z"/>
<path d="M2854 6364 c3 -36 11 -75 17 -86 10 -19 11 -19 31 -1 24 22 20 67
-12 118 -33 54 -43 45 -36 -31z"/>
<path d="M2695 6274 c-8 -45 3 -138 20 -160 11 -16 14 -16 44 5 17 12 34 34
37 48 5 16 9 21 14 13 9 -15 30 -4 30 15 0 20 -21 30 -31 14 -6 -11 -9 -11 -9
-1 0 14 -78 102 -90 102 -4 0 -11 -16 -15 -36z"/>
<path d="M2842 6256 c1 -10 8 -17 13 -17 15 1 12 24 -3 29 -9 3 -13 -2 -10
-12z"/>
<path d="M2930 6208 c0 -16 -3 -19 -9 -10 -14 22 -22 -46 -11 -88 6 -21 17
-43 25 -50 13 -11 15 -2 15 73 0 47 -4 89 -10 92 -6 3 -10 -4 -10 -17z"/>
<path d="M2880 6211 c0 -6 5 -13 10 -16 6 -3 10 1 10 9 0 9 -4 16 -10 16 -5 0
-10 -4 -10 -9z"/>
<path d="M2835 6130 c-4 -6 -3 -16 3 -22 6 -6 12 -6 17 2 4 6 3 16 -3 22 -6 6
-12 6 -17 -2z"/>
<path d="M2880 6124 c0 -8 5 -12 10 -9 6 4 8 11 5 16 -9 14 -15 11 -15 -7z"/>
<path d="M2808 6095 c-3 -3 -15 -8 -28 -10 -28 -5 -50 -23 -50 -42 0 -22 35
-86 60 -108 18 -16 23 -17 30 -5 12 19 24 135 16 155 -5 15 -18 20 -28 10z"/>
<path d="M2890 6055 c0 -18 -17 -20 -23 -2 -2 6 -10 -20 -16 -60 -7 -40 -10
-77 -6 -83 11 -18 33 -11 59 21 28 33 32 59 15 108 -11 32 -29 42 -29 16z"/>
<path d="M5234 6066 c-18 -13 -12 -36 9 -36 13 0 14 -4 20 -85 9 -128 68 -155
147 -70 l25 27 -42 -4 c-36 -3 -40 -1 -32 14 5 9 9 28 9 42 0 23 4 26 36 26
43 0 38 11 -22 46 -67 39 -128 56 -150 40z"/>
<path d="M5087 6030 l-32 -30 33 4 c17 2 32 1 32 -3 -1 -3 -19 -26 -40 -50
-34 -36 -44 -43 -69 -39 -34 5 -45 -10 -35 -47 7 -27 83 -61 160 -72 43 -6 44
-5 60 32 14 35 14 43 -1 99 -22 78 -43 123 -61 130 -8 3 -29 -8 -47 -24z"/>
<path d="M5484 5854 c-18 -17 -24 -29 -16 -32 14 -4 -32 -102 -49 -102 -6 0
-9 -12 -7 -27 5 -46 141 -134 166 -108 4 3 -1 11 -11 16 -15 9 -16 13 -2 39
27 52 14 143 -30 208 l-23 34 -28 -28z"/>
<path d="M5295 5800 c-11 -17 5 -50 25 -50 22 0 30 19 18 43 -10 19 -33 23
-43 7z"/>
<path d="M5197 5794 c-13 -13 -7 -55 9 -61 24 -9 51 23 38 45 -12 19 -36 27
-47 16z"/>
<path d="M4943 5783 c-8 -2 -13 -21 -12 -41 0 -20 3 -31 6 -24 2 6 17 12 33
12 29 0 40 -18 40 -72 0 -24 -4 -28 -29 -28 -18 0 -31 6 -35 16 -4 9 -9 14
-13 11 -3 -4 -2 -12 4 -19 5 -7 10 -26 11 -42 1 -16 10 -46 20 -65 27 -57 56
-53 130 16 56 53 62 62 62 98 -1 52 -15 70 -86 104 -63 30 -111 43 -131 34z"/>
<path d="M5357 5693 c-12 -11 -8 -40 7 -52 21 -18 41 11 26 38 -11 22 -22 26
-33 14z"/>
<path d="M5184 5656 c-10 -26 4 -48 28 -44 17 2 23 10 23 28 0 18 -6 26 -23
28 -13 2 -25 -3 -28 -12z"/>
<path d="M5290 5605 c-17 -20 -8 -50 15 -50 14 0 21 8 23 26 4 31 -20 45 -38
24z"/>
<path d="M5372 5558 c-14 -14 -16 -38 -3 -38 6 0 13 5 16 10 3 6 22 10 41 10
38 0 46 15 12 24 -35 9 -53 7 -66 -6z"/>
<path d="M5184 5536 c-33 -15 -53 -36 -34 -36 7 0 8 -6 0 -19 -5 -11 -10 -31
-10 -45 0 -23 -4 -26 -35 -26 -41 0 -44 -12 -10 -46 29 -29 95 -59 152 -69 36
-6 43 -4 53 15 14 26 -2 167 -22 199 -9 15 -50 43 -61 41 -1 -1 -16 -7 -33
-14z"/>
<path d="M5517 5483 c-16 -8 -53 -17 -83 -20 -36 -4 -54 -10 -54 -19 0 -8 -7
-14 -16 -14 -14 0 -16 -9 -12 -51 3 -28 12 -57 20 -66 14 -13 19 -13 44 1 41
22 64 44 107 100 52 68 49 98 -6 69z"/>
<path d="M2744 4740 c-37 -15 -62 -58 -74 -128 -16 -87 -9 -462 9 -512 20 -55
54 -80 109 -80 86 0 116 40 132 177 20 175 6 420 -27 491 -24 51 -93 75 -149
52z"/>
<path d="M8354 4736 c-17 -8 -38 -28 -47 -48 -34 -72 -47 -313 -27 -492 16
-140 43 -178 125 -178 59 0 83 16 108 70 21 44 22 62 22 292 0 266 -7 305 -56
342 -33 25 -88 31 -125 14z"/>
<path d="M1680 4613 l0 -143 84 0 c103 0 124 13 137 85 19 103 -15 194 -73
196 -13 0 -51 1 -86 2 l-62 2 0 -142z"/>
<path d="M3697 4753 c-4 -3 -7 -62 -7 -130 l0 -123 80 0 c109 0 120 11 120
118 0 97 -6 117 -36 131 -27 12 -146 15 -157 4z"/>
<path d="M3692 4158 l3 -153 45 -3 c67 -5 129 7 151 29 16 16 19 34 19 120 0
55 -4 109 -10 119 -14 26 -63 40 -142 40 l-69 0 3 -152z"/>
<path d="M5524 4751 c-2 -2 -4 -67 -4 -143 l0 -138 84 0 c75 0 88 3 113 24 27
23 28 28 28 114 0 81 -2 93 -24 115 -21 23 -33 26 -108 29 -47 2 -87 1 -89 -1z"/>
<path d="M7386 4718 c-2 -7 -9 -47 -15 -88 -6 -41 -21 -130 -34 -197 l-24
-123 95 0 94 0 -5 28 c-3 15 -21 109 -39 209 -28 156 -36 183 -51 183 -10 0
-19 -6 -21 -12z"/>
<path d="M4490 3210 l0 -81 28 3 c22 2 29 10 36 41 6 23 6 51 0 75 -7 30 -14
38 -36 40 l-28 3 0 -81z"/>
<path d="M5410 3210 c0 -70 2 -80 18 -80 36 0 45 16 43 80 -1 73 -4 80 -37 80
-23 0 -24 -2 -24 -80z"/>
<path d="M4986 2905 c-11 -29 -6 -111 8 -130 8 -11 19 -16 30 -12 14 6 16 19
14 79 -3 66 -5 73 -24 76 -13 2 -24 -4 -28 -13z"/>
</g>
</svg>
